# xmcd
#
# Track frame offsets:
#	150
#	16212
#	35250
#	54637
#	70550
#	83675
#	97800
#	112625
#	127537
#	145900
#	164375
#	180650
#	198462
#	214237
#	227125
#	240650
#	257562
#	279950
#	299300
#
# Disc length: 4235 seconds
#
# Revision: 8
# Processed by: cddbd v1.5.2PL0 Copyright (c) Steve Scherf et al.
# Submitted via: EZCDAudioConverter 8.2.2.1
#
DISCID=f4108913
DTITLE=雷安娜 - 寶麗金88極品音色系列
DYEAR=1998
DGENRE=粵語流行曲
TTITLE0=雷安娜 - 舊夢不須記
TTITLE1=雷安娜 - 彩雲曲
TTITLE2=雷安娜+彭健新 - 停不了的愛
TTITLE3=雷安娜 - 做個木頭人
TTITLE4=雷安娜+關正傑 - 人在旅途灑淚時
TTITLE5=雷安娜 - 別了憂鬱
TTITLE6=雷安娜+譚詠麟 - 暫別
TTITLE7=雷安娜 - 濁世暖流清
TTITLE8=雷安娜 - 痴情劫
TTITLE9=雷安娜 - 無奈我心亂如麻
TTITLE10=雷安娜 - 真的喜歡你
TTITLE11=雷安娜 - 美麗的童話
TTITLE12=雷安娜 - 太陽留住我
TTITLE13=雷安娜 - 那個願清醒
TTITLE14=雷安娜 - 戀愛熱潮
TTITLE15=雷安娜 - 白衣天使
TTITLE16=雷安娜+蔣麗萍 - 愛的熱淚
TTITLE17=雷安娜 - 誰願意孤單
TTITLE18=雷安娜 - 離別之前
EXTD=
EXTT0=
EXTT1=
EXTT2=
EXTT3=
EXTT4=
EXTT5=
EXTT6=
EXTT7=
EXTT8=
EXTT9=
EXTT10=
EXTT11=
EXTT12=
EXTT13=
EXTT14=
EXTT15=
EXTT16=
EXTT17=
EXTT18=
PLAYORDER=
